<?xml version="1.0" encoding="UTF-8" standalone="no"?> <!-- Created with Vectornator Pro for iOS (http://vectornator.io/) --><!DOCTYPE svg PUBLIC "-//W3C//DTD SVG 1.1//EN" "http://www.w3.org/Graphics/SVG/1.1/DTD/svg11.dtd">
<svg height="100%" style="fill-rule:evenodd;clip-rule:evenodd;stroke-linecap:round;stroke-linejoin:round;" xmlns:xlink="http://www.w3.org/1999/xlink" xmlns="http://www.w3.org/2000/svg" xml:space="preserve" width="100%" xmlns:vectornator="http://vectornator.io" version="1.1" viewBox="0 0 1600 600">
<metadata>
<vectornator:setting key="RulersVisible" value="1"/>
<vectornator:setting key="SnapToEdges" value="0"/>
<vectornator:setting key="Units" value="Pixels"/>
<vectornator:setting key="DynamicGuides" value="0"/>
<vectornator:setting key="SnapToPoints" value="0"/>
<vectornator:setting key="SnapToGrid" value="0"/>
<vectornator:setting key="ShowGrid" value="1"/>
<vectornator:setting key="GridSpacing" value="36"/>
</metadata>
<defs/>
<g id="Icon" vectornator:layerName="Icon">
<path d="M181.57+108.798C226.683+110.386+271.794+108.606+316.743+111.262C320.258+111.47+356.72+112.997+357.387+113.842C368.595+128.05+364.136+169.774+362.489+189.749C360.451+214.464+366.298+241.791+366.699+266.826C366.864+277.057+363.23+287.511+361.969+297.628C359.372+318.465+361.852+340.032+362.502+360.886C363.142+381.436+366.233+421.642+343.951+433.954C309.401+453.045+216.786+426.736+190.258+400.766C176.297+387.1+176.974+365.664+173.028+348.113C171.747+342.42+169.909+337.57+168.38+332.565C167.476+329.603+165.851+320.441+166.572+323.453C168.116+329.91+168.329+331.923+173.678+326.521L167.542+320.385C185.14+292.133+183.496+354.703+183.704+359.816C184.097+369.451+189.95+385.418+196.629+392.272C205.893+401.78+220.719+409.43+232.455+415.047C246.951+421.985+326.564+434.737+338.159+421.242C356.164+400.287+346.922+369.09+347.232+344.46C347.595+315.639+353.518+287.878+355.07+259.52C356.259+237.781+350.859+215.196+351.291+193.196C351.721+171.251+361.451+131.794+349.946+117.954C348.969+116.779+352.706+120.044+354.189+119.68C355.082+119.461+352.364+119.467+351.449+119.379C346.878+118.938+344.29+117.284+339.576+117.656C329.317+118.466+319.68+117.16+309.436+118.026C267.157+121.602+224.107+114.652+181.57+116.149" stroke="#000000" stroke-width="15.25" fill="#000000" opacity="1" stroke-linejoin="round"/>
<path d="M436.157+274.133C436.165+295.655+441.122+319.457+438.118+340.806C431.557+387.437+437.536+414.236+493.44+419.31C511.494+420.949+532.617+428.488+547.906+415.356C575.99+391.234+558.268+337.109+552.356+305.195C551.085+298.333+547.692+281.147+548.529+285.293C548.614+285.716+547.226+284.313+547.656+284.339C551.305+284.556+561.025+281.782+557.774+280.114C555.924+279.165+559.382+283.973+559.816+286.006C560.667+289.995+558.775+294.033+558.027+297.464C555.216+310.361+557.74+325.38+557.851+338.98C557.996+356.777+563.339+374.393+567.973+391.252C570.104+399.003+569.216+402.505+570.7+404.688C572.042+406.66+576.321+411.852+576.008+409.488C575.607+406.467+581.647+411.861+584.605+412.591C591.904+414.391+599.626+414.179+607.182+414.007C610.404+413.934+613.299+414.82+616.315+414.539C617.232+414.454+619.974+414.256+619.055+414.2C610.575+413.677+608.921+433.507+618.405+422.355L612.399+416.35C621.174+400.694+630.83+423.279+619.055+426.332C613.14+427.866+602.574+424.782+596.222+424.794C588.89+424.808+582.002+424.402+575.077+422.508C572.452+421.79+559.47+415.218+561.464+413.924C564.141+412.187+557.995+408.566+556.277+405.877C553.244+401.126+553.124+388.301+552.414+382.966C549.22+358.945+543.933+335.796+544.167+310.666C544.222+304.679+549.792+286.703+549.715+286.427C548.886+283.466+542.539+279.761+548.155+276.299C550.964+274.568+555.526+272.722+557.961+274.948C565.271+281.632+577.806+391.226+568.744+402.854C559.754+414.389+545.459+429.751+530.462+432.554C507.396+436.865+431.083+423.081+424.031+394.586C415.039+358.251+425.647+313.183+425.661+274.133" stroke="#000000" stroke-width="15.25" fill="#000000" opacity="1" stroke-linejoin="round"/>
<path d="M680.068+174.606C689.146+243.117+700.363+310.302+703.638+379.166C704.716+401.835+706.185+425.001+706.104+447.666C706.08+454.304+706.74+461.909+707.711+468.673C708.211+472.159+707.32+473.678+706.284+477.351C706.036+478.231+705.487+480.921+705.712+480.034C710.783+460.034+706.561+469.249+701.921+481.459C700.55+485.068+697.984+467.153+697.602+478.932L697.602+487.64C690.432+494.104+684.021+490.735+680.496+481.459C677.966+474.802+687.246+457.331+683.834+465.865C682.644+468.842+682.846+472.422+681.034+475.066C679.735+476.961+681.962+470.557+682.185+468.271C682.852+461.43+681.818+454.497+681.793+447.666C681.711+424.724+681.343+402.078+682.432+379.166C685.532+313.999+675.323+241.748+667.643+176.381" stroke="#000000" stroke-width="15.25" fill="#000000" opacity="1" stroke-linejoin="round"/>
<path d="M679.631+298.793C683.59+265.318+716.328+264.011+745.095+263.61C793.79+262.932+834.605+294.628+837.9+342.633C838.74+354.876+834.373+358.931+827.281+367.579C824.262+371.26+822.984+376.866+819.237+381.53C806.081+397.906+766.569+398.872+747.584+398.665C734.871+398.526+722.174+399.072+709.475+399.217C706.196+399.255+688.564+397.366+695.722+396.466L690.348+391.093C701.101+382.431+779.942+397.55+809.779+376.802C815.105+373.098+813.428+367.735+816.179+362.838C822.35+351.856+828.684+349.083+826.58+333.785C818.262+273.313+705.481+241.899+682.692+298.793" stroke="#000000" stroke-width="15.25" fill="#000000" opacity="1" stroke-linejoin="round"/>
<path d="M872.006+261.346C885.318+260.242+892.098+259.606+899.966+270.657C907.071+280.636+910.505+291.921+918.832+301.272C936.054+320.612+955.327+337.771+971.96+357.067C981.097+367.666+1003.98+378.155+1007.08+386.999L998.227+391.427C1002.03+393.719+964.967+364.798+962.402+358.564C953.805+337.669+926.045+324.096+911.117+307.274C899.692+294.4+887.98+275.996+879.397+261.346" stroke="#000000" stroke-width="15.25" fill="#000000" opacity="1" stroke-linejoin="round"/>
<path d="M1066.11+268.492C1053.12+292.697+1006.44+368.068+1007.13+390.031L998.182+381.088C998.292+377.825+1014.74+337.159+1021.11+322.358C1029.29+303.333+1050+284.264+1061.59+266.987" stroke="#000000" stroke-width="15.25" fill="#000000" opacity="1" stroke-linejoin="round"/>
<path d="M1001.08+406.566C999.636+436.555+997.595+466.906+999.017+496.986C999.319+503.384+1002.09+525.708+994.073+529.505C946.16+552.208+883.365+459.689+901.088+433.966L905.115+433.966C920.985+443.477+913.372+470.601+924.105+485.115C930.967+494.396+940.248+500.946+950.428+506.236C956.658+509.473+960.575+513.859+966.363+517.508C973.348+521.913+977.284+522.798+985.311+520.764C994.043+518.552+985.132+524.19+985.113+523.472C984.137+486.141+983.141+443.106+991.442+406.566" stroke="#000000" stroke-width="15.25" fill="#000000" opacity="1" stroke-linejoin="round"/>
<path d="M991.525+406.233C991.386+408.438+991.247+410.642+991.108+412.847L988.627+413.072C987.27+410.405+985.913+407.739+984.557+405.072" stroke="#000000" stroke-width="15.25" fill="#000000" opacity="1" stroke-linejoin="round"/>
<path d="M994.93+408.602C994.67+400.005+999.138+387.76+993.678+383.733C991.954+382.461+998.247+386.158+998.2+388.299C998.078+393.852+998.219+417.329+994.218+418.224C982.564+420.829+990.69+400.12+987.363+396.858C987.18+396.678+986.914+397.309+987.014+397.546C987.557+398.829+991.573+392.442+991.587+399.259C991.592+402.017+989.77+407.479+992.528+407.479C993.707+407.479+987.07+406.184+987.006+403.826C986.89+399.537+982.016+397.547+979.833+393.767C978.566+391.573+969.078+372.63+968.251+372.773C967.041+372.981+972.287+364.974+976.596+372.102C983.828+384.068+981.531+402.156+994.294+409.517C994.586+409.685+986.779+409.796+988.498+401.999C989.456+397.655+1000.85+382.567+1000.94+384.539L1004.37+381.1C1009.95+386.153+994.619+416.157+990.921+414.575C979.166+409.547+979.631+399.651+975.568+389.413C973.745+384.821+969.673+375.127+970.047+375.24C974.446+376.562+973.308+373.047+973.096+369.451C973.035+368.412+975.369+372.642+974.39+372.292C972.643+371.666+976.199+375.872+977.902+376.611C980.55+377.761+983.768+381.358+984.489+384.308C984.773+385.474+995.15+403.547+992.684+404.739C982.349+409.738+986.432+390.779+988.041+392.752C1002.75+410.778+989.024+413.216+989.365+415.699C989.732+418.378+990.459+410.403+990.879+407.732C991.486+403.873+990.816+384.969+993.295+382.594C1002.69+373.598+999.591+401.949+999.419+406.357" stroke="#000000" stroke-width="15.25" fill="#000000" opacity="1" stroke-linejoin="round"/>
<path d="M1131.81+177.32C1126.31+172.133+1116.9+159.502+1140.35+180.973C1143.41+183.767+1140.77+206.385+1141.39+211.427C1141.75+214.323+1147.8+218.903+1144.93+219.436C1124.53+223.228+1126.84+209.023+1127.31+192.847C1127.37+190.533+1128.2+174.375+1130.53+175.506C1150.38+185.124+1141.84+197.416+1144.99+214.767C1151.54+250.814+1154.86+300.516+1160.97+329.033C1164.14+343.844+1161.29+365.918+1162+375.755C1162.44+381.691+1163.16+386.222+1163.28+391.953C1163.32+394.114+1162.93+400.377+1162.19+398.346C1161.62+396.78+1161.53+395.063+1160.94+393.504C1159.37+389.365+1165.23+410.563+1163.33+406.566C1158.75+396.947+1163.97+405.331+1165.23+405.164C1172.21+404.24+1200.66+404.504+1203.59+410.717L1203.59+413.375C1201.7+417.392+1161.69+414.813+1155.88+411.695C1138.87+402.552+1151.4+349.602+1143.24+311.602C1136.37+279.617+1130.87+247.796+1127.01+214.767C1126.14+207.275+1128.18+199.425+1128.12+191.933C1128.11+190.923+1127.98+184.682+1128.25+184.627C1152+179.74+1137.68+184.924+1140.99+204.274C1141.31+206.138+1148.22+219.223+1146.77+220.247C1143.19+222.79+1138.54+223.293+1134.38+224.711C1131.59+225.661+1132.27+219.199+1131.51+216.356C1129.91+210.413+1125.73+185.758+1129.82+180.973C1141.14+167.744+1141.57+168.923+1140.19+177.32" stroke="#000000" stroke-width="15.25" fill="#000000" opacity="1" stroke-linejoin="round"/>
<path d="M1113.17+313.357C1132.45+312.951+1152.11+313.084+1171.33+310.918C1179.04+310.048+1186.74+309.707+1194.45+308.932C1197.57+308.619+1206.71+306.487+1203.59+306.71C1193.86+307.401+1197.04+306.402+1202.67+316.702L1202.67+311.938C1204.97+314.424+1209.27+316.023+1209.58+319.397C1209.9+322.942+1180.97+318.73+1180.31+318.744C1158.06+319.205+1135.41+321.71+1113.17+322.589" stroke="#000000" stroke-width="15.25" fill="#000000" opacity="1" stroke-linejoin="round"/>
<path d="M1255.92+336.07C1266.68+334.879+1280.3+332.376+1291.61+332.256C1300.72+332.159+1330.44+325.776+1324.64+322.329C1323.23+321.494+1327.26+320.358+1328.41+319.189C1329.33+318.243+1329.94+316.955+1331.02+316.196C1332.15+315.407+1336.38+315.047+1335.11+315.581C1332.61+316.633+1332.01+322.927+1329.64+321.613C1310.51+311.025+1265.89+315.018+1259.34+352.87C1258.06+360.267+1255.55+366.651+1256.84+372.247C1259.94+385.774+1285.41+388.138+1295.77+389.668C1331.86+394.999+1376.5+396.213+1399.79+364.385C1416.33+341.769+1362.89+325.104+1363.12+324.668C1365.26+320.569+1367.33+316.21+1370.73+313.066C1376.15+308.042+1465.18+322.261+1472.31+335.125C1480.87+350.581+1449.83+366.647+1458.14+376.426C1463.94+383.253+1491.17+384.25+1503.16+385.036C1510.81+385.537+1518.3+385.735+1525.99+385.399C1526.3+385.386+1527.21+385.357+1526.91+385.32C1506.89+382.899+1526.67+406.997+1524.17+398.207L1524.17+383.872C1526.83+374.523+1537.3+387.612+1533.2+397.33C1532.44+399.123+1453.49+399.801+1440.63+382.811C1424.25+361.183+1464.4+346.291+1464.6+342.834C1465.19+332.481+1402.17+326.566+1395.39+326.645C1393.36+326.668+1370.65+328.436+1370.73+326.533C1370.9+322.214+1373.24+310.522+1370.18+313.578C1367.79+315.972+1385.98+320.839+1390.15+323.96C1401.91+332.766+1412.07+345.885+1409.11+361.455C1400.93+404.355+1286.78+416.288+1257.43+390.484C1244.76+379.338+1243.43+370.461+1247.33+355.218C1249.38+347.207+1248.54+336.207+1254.87+329.985C1308.27+277.48+1386.41+328.867+1294.92+340.278C1282.46+341.832+1269.91+342.918+1257.2+343.716" stroke="#000000" stroke-width="15.25" fill="#000000" opacity="1" stroke-linejoin="round"/>
</g>
</svg>
