<svg xmlns="http://www.w3.org/2000/svg" width="3370.81" height="2384.24" clip-rule="evenodd"><metadata/><g><title>background</title><rect id="canvas_background" width="582" height="402" x="-1" y="-1" fill="none"/></g><g><title>Layer 1</title><g id="Layer 1" stroke="null"><g id="svg_1" stroke="null"><path id="svg_2" fill="#fff" stroke="null" d="m1032.627319,1008.318176c0.072388,0.939697 0.376587,1.702393 0.911133,2.288086c1.017822,1.097412 2.813843,1.64563 5.385254,1.64563c1.1521,0 2.201416,-0.120239 3.146729,-0.360657c1.831543,-0.465515 2.746582,-1.300293 2.746582,-2.502563c0,-0.901184 -0.385742,-1.54364 -1.157349,-1.927429c-0.780762,-0.375061 -2.005249,-0.702026 -3.672119,-0.97998l-3.070435,-0.506897c-2.005371,-0.330872 -3.424683,-0.695313 -4.258179,-1.093506c-1.44043,-0.691528 -2.160645,-1.724487 -2.160645,-3.099854c0,-1.487854 0.704468,-2.708313 2.114502,-3.662415c1.408936,-0.955017 3.404907,-1.432068 5.986938,-1.432068c2.375366,0 4.395142,0.419373 6.05542,1.257019c1.661621,0.837769 2.492432,2.177429 2.492432,4.018311l-2.88623,0c-0.153931,-0.88678 -0.483154,-1.566711 -0.987427,-2.039917c-0.936157,-0.864624 -2.525391,-1.296509 -4.767578,-1.296509c-1.810425,0 -3.11145,0.277954 -3.904053,0.833862c-0.79126,0.555908 -1.187622,1.202209 -1.187622,1.938965c0,0.810791 0.463501,1.405151 1.38916,1.780212c0.606934,0.240479 1.980347,0.541504 4.119873,0.902161l3.178467,0.529968c1.532471,0.254883 2.714844,0.603943 3.54834,1.047363c1.44043,0.774231 2.160767,1.897583 2.160767,3.370056c0,1.834106 -0.913818,3.144958 -2.73877,3.933655c-1.826172,0.788635 -3.947388,1.18396 -6.364746,1.18396c-2.819092,0 -5.025757,-0.526123 -6.620239,-1.578308c-1.594482,-1.044434 -2.375244,-2.461182 -2.344971,-4.249146l2.884766,0zm6.202881,-11.665283"/><path id="svg_3" fill="#fff" stroke="null" d="m1053.70459,1008.318176c0.07251,0.939697 0.375244,1.702393 0.911133,2.288086c1.017822,1.097412 2.812378,1.64563 5.385254,1.64563c1.1521,0 2.200073,-0.120239 3.146851,-0.360657c1.831543,-0.465515 2.74646,-1.300293 2.74646,-2.502563c0,-0.901184 -0.385742,-1.54364 -1.157227,-1.927429c-0.782104,-0.375061 -2.005371,-0.702026 -3.672241,-0.97998l-3.070557,-0.506897c-2.005249,-0.330872 -3.424561,-0.695313 -4.258057,-1.093506c-1.44043,-0.691528 -2.160645,-1.724487 -2.160645,-3.099854c0,-1.487854 0.704346,-2.708313 2.114624,-3.662415c1.408813,-0.955017 3.404907,-1.432068 5.985596,-1.432068c2.376587,0 4.39502,0.419373 6.056519,1.257019c1.661743,0.837769 2.492554,2.177429 2.492554,4.018311l-2.886108,0c-0.154053,-0.88678 -0.483276,-1.566711 -0.987549,-2.039917c-0.936157,-0.864624 -2.525269,-1.296509 -4.767578,-1.296509c-1.810547,0 -3.111328,0.277954 -3.904053,0.833862c-0.79126,0.555908 -1.187622,1.202209 -1.187622,1.938965c0,0.810791 0.463623,1.405151 1.38916,1.780212c0.606934,0.240479 1.980225,0.541504 4.119873,0.902161l3.178467,0.529968c1.532593,0.254883 2.714844,0.603943 3.54834,1.047363c1.440552,0.774231 2.160767,1.897583 2.160767,3.370056c0,1.834106 -0.913818,3.144958 -2.740112,3.933655c-1.824951,0.788635 -3.947388,1.18396 -6.364746,1.18396c-2.817749,0 -5.024414,-0.526123 -6.618896,-1.578308c-1.594482,-1.044434 -2.376587,-2.461182 -2.344971,-4.249146l2.884766,0zm6.202881,-11.665283"/></g><g id="svg_4" stroke="null"><path id="svg_5" fill="#fff" stroke="null" d="m584.133728,1004.392273l0,1.972534l-7.638,0l0,14.584351l-3.116577,0l0,-14.584351l-7.638,0l0,-1.972534l18.392578,0z"/><path id="svg_6" fill="#fff" stroke="null" d="m589.950806,1008.607727c1.171814,0 2.309448,0.200989 3.408875,0.603027c1.100708,0.401978 1.939453,0.922363 2.516174,1.560974c0.55426,0.608765 0.925537,1.318542 1.109863,2.13031c0.164551,0.555908 0.24762,1.442627 0.24762,2.659302l-12.112122,0c0.051331,1.225281 0.44635,2.207275 1.187683,2.947815c0.739929,0.739624 1.888062,1.109924 3.44043,1.109924c1.450989,0 2.608276,-0.349121 3.472107,-1.04834c0.493774,-0.405884 0.843933,-0.875244 1.049377,-1.408997l2.730713,0c-0.072449,0.443359 -0.31073,0.937744 -0.71759,1.482117c-0.405518,0.545288 -0.861023,0.990601 -1.365295,1.335876c-0.844055,0.601074 -1.888184,1.006958 -3.132324,1.21759c-0.668945,0.120239 -1.424744,0.179871 -2.268738,0.179871c-2.056641,0 -3.799927,-0.546326 -5.229736,-1.639832c-1.429932,-1.093506 -2.144836,-2.623718 -2.144836,-4.592468c0,-1.938904 0.720154,-3.513367 2.160522,-4.722351c1.439087,-1.2099 3.322021,-1.814819 5.647278,-1.814819zm4.427917,5.342651c-0.113159,-0.879089 -0.375183,-1.582153 -0.787354,-2.108215c-0.761047,-0.976257 -2.031616,-1.464783 -3.810364,-1.464783c-1.27594,0 -2.346375,0.335632 -3.210083,1.008911c-0.86377,0.672302 -1.322021,1.527283 -1.373352,2.564087l9.181152,0zm-4.691345,-5.364807"/><path id="svg_7" fill="#fff" stroke="null" d="m599.068726,1008.877991l3.595825,0l3.795959,4.249084l3.842041,-4.249084l3.378601,0.056702l-5.56958,5.826477l5.817139,6.187988l-3.549744,0l-4.104065,-4.530884l-3.980347,4.530884l-3.518127,0l5.817078,-6.187988l-5.52478,-5.883179z"/><path id="svg_8" fill="#fff" stroke="null" d="m616.999146,1005.507874l2.807129,0l0,3.370117l2.638672,0l0,1.657104l-2.638672,0l0,7.87793c0,0.421265 0.196228,0.703003 0.58728,0.845337c0.215942,0.082764 0.575378,0.124146 1.079651,0.124146c0.134338,0 0.277832,-0.001953 0.431824,-0.005859c0.154114,-0.003784 0.334534,-0.012451 0.539917,-0.027832l0,1.600342c-0.318665,0.067383 -0.650452,0.116455 -0.995422,0.14624c-0.343689,0.030762 -0.716309,0.045227 -1.117859,0.045227c-1.296997,0 -2.176514,-0.242371 -2.63855,-0.727173c-0.463562,-0.48468 -0.69397,-1.113708 -0.69397,-1.887878l0,-7.990479l-2.238342,0l0,-1.657104l2.238342,0l0,-3.370117z"/></g><g id="svg_9" stroke="null"><path id="svg_10" fill="#fff" stroke="null" d="m934.842163,1384.409546c0.072449,0.942505 0.376587,1.702393 0.911194,2.289063c1.0177,1.096436 2.81366,1.644531 5.385132,1.644531c1.1521,0 2.201538,-0.125 3.146912,-0.365479c1.831421,-0.461548 2.746582,-1.29834 2.746582,-2.50061c0,-0.894287 -0.385925,-1.538818 -1.15741,-1.923462c-0.780762,-0.375122 -2.00531,-0.702148 -3.672241,-0.981079l-3.070374,-0.509644c-2.00531,-0.327026 -3.424744,-0.692505 -4.258179,-1.086792c-1.440369,-0.692627 -2.160645,-1.731201 -2.160645,-3.106567c0,-1.481079 0.704407,-2.702637 2.114624,-3.664429c1.408752,-0.952148 3.404907,-1.42334 5.986877,-1.42334c2.375183,0 4.393738,0.413452 6.05542,1.250244c1.66156,0.83667 2.49231,2.183228 2.49231,4.020264l-2.886047,0c-0.154053,-0.884888 -0.483215,-1.567749 -0.987488,-2.03894c-0.936157,-0.865601 -2.525452,-1.298462 -4.767761,-1.298462c-1.810364,0 -3.111206,0.278931 -3.90387,0.836792c-0.791321,0.557739 -1.187683,1.202271 -1.187683,1.933228c0,0.817383 0.463562,1.413696 1.389038,1.788818c0.607117,0.240479 1.980347,0.538574 4.119934,0.894409l3.178467,0.529053c1.532593,0.259644 2.715027,0.605835 3.548401,1.048218c1.440491,0.779175 2.160645,1.904297 2.160645,3.375854c0,1.827393 -0.913757,3.14502 -2.738708,3.933716c-1.826111,0.788696 -3.947266,1.182983 -6.364746,1.182983c-2.818909,0 -5.025757,-0.528931 -6.620178,-1.577271c-1.594543,-1.048462 -2.375305,-2.462158 -2.345032,-4.251099l2.884827,0zm6.202881,-11.666382"/><path id="svg_11" fill="#fff" stroke="null" d="m955.919434,1384.409546c0.072449,0.942505 0.375244,1.702393 0.911133,2.289063c1.017761,1.096436 2.812439,1.644531 5.385193,1.644531c1.1521,0 2.200195,-0.125 3.146851,-0.365479c1.831543,-0.461548 2.746582,-1.29834 2.746582,-2.50061c0,-0.894287 -0.385803,-1.538818 -1.157349,-1.923462c-0.782166,-0.375122 -2.005249,-0.702148 -3.67218,-0.981079l-3.070496,-0.509644c-2.00531,-0.327026 -3.424622,-0.692505 -4.258118,-1.086792c-1.44043,-0.692627 -2.160645,-1.731201 -2.160645,-3.106567c0,-1.481079 0.704407,-2.702637 2.114563,-3.664429c1.408813,-0.952148 3.403564,-1.42334 5.985596,-1.42334c2.376587,0 4.39502,0.413452 6.056702,1.250244c1.661621,0.83667 2.492432,2.183228 2.492432,4.020264l-2.886108,0c-0.154053,-0.884888 -0.483276,-1.567749 -0.987549,-2.03894c-0.936096,-0.865601 -2.525391,-1.298462 -4.7677,-1.298462c-1.810425,0 -3.111267,0.278931 -3.90387,0.836792c-0.791321,0.557739 -1.187683,1.202271 -1.187683,1.933228c0,0.817383 0.462219,1.413696 1.38916,1.788818c0.606995,0.240479 1.980286,0.538574 4.119812,0.894409l3.178467,0.529053c1.532593,0.259644 2.714966,0.605835 3.548462,1.048218c1.440369,0.779175 2.160645,1.904297 2.160645,3.375854c0,1.827393 -0.913757,3.14502 -2.73999,3.933716c-1.824951,0.788696 -3.947388,1.182983 -6.364807,1.182983c-2.817749,0 -5.024414,-0.528931 -6.618958,-1.577271c-1.594482,-1.048462 -2.376526,-2.462158 -2.34491,-4.251099l2.884766,0zm6.202881,-11.666382"/></g><g id="svg_13" stroke="null"><path id="svg_14" fill="#fff" stroke="null" d="m2360.083252,3792.019043l0,24.650391l-95.471924,0l0,182.304443l-38.960205,0l0,-182.304443l-95.47168,0l0,-24.650391l229.903809,0z"/><path id="svg_15" fill="#fff" stroke="null" d="m2235.289307,4190.943848c14.654541,0 28.861084,2.510254 42.620361,7.540039c13.759277,5.020996 24.240234,11.532227 31.442383,19.514648c6.938477,7.60791 11.573242,16.484863 13.890869,26.62207c2.053711,6.953613 3.080811,18.033203 3.080811,33.248535l-151.403809,0c0.64502,15.311523 5.595947,27.593262 14.852051,36.845215c9.255859,9.252441 23.594482,13.878906 43.015625,13.878906c18.130371,0 32.587402,-4.366699 43.384277,-13.108887c6.175293,-5.068848 10.546387,-10.935547 13.127197,-17.610352l34.12793,0c-0.895264,5.539551 -3.884277,11.724121 -8.966309,18.533691c-5.08252,6.809082 -10.770508,12.368164 -17.064209,16.686523c-10.546387,7.520996 -23.594727,12.589844 -39.157715,15.215332c-8.361084,1.509766 -17.80127,2.260254 -28.348145,2.260254c-25.714355,0 -47.518555,-6.838379 -65.385986,-20.505371c-17.866943,-13.656738 -26.807129,-32.796387 -26.807129,-57.408203c0,-24.227051 8.99292,-43.904785 27.005127,-59.024414c17.998779,-15.128418 41.527588,-22.687988 70.58667,-22.687988zm55.352783,66.776367c-1.40918,-10.983398 -4.687256,-19.765137 -9.835693,-26.343262c-9.519775,-12.205078 -25.398682,-18.3125 -47.637207,-18.3125c-15.94458,0 -29.322266,4.203125 -40.118896,12.608887c-10.796875,8.40625 -16.52417,19.091309 -17.169189,32.046875l114.760986,0zm-58.631592,-67.055176"/><path id="svg_16" fill="#fff" stroke="null" d="m2129.600098,4540.567871l44.937744,0l47.439941,53.109863l48.031982,-53.109863l42.238525,0.702148l-69.625488,72.835449l72.706543,77.345703l-44.358398,0l-51.310791,-56.629395l-49.75708,56.629395l-43.976563,0l72.719482,-77.345703l-69.045898,-73.537598z"/><path id="svg_17" fill="#fff" stroke="null" d="m2156.209717,4844.681152l35.102539,0l0,42.125488l32.982666,0l0,20.70752l-32.982666,0l0,98.475586c0,5.26123 2.448975,8.78125 7.33374,10.570313c2.699219,1.028809 7.202148,1.54834 13.496094,1.54834c1.672363,0 3.476074,-0.019531 5.398193,-0.067383c1.935791,-0.04834 4.187012,-0.163086 6.754639,-0.355957l0,20.004883c-3.989502,0.84668 -8.136963,1.461914 -12.442383,1.836914c-4.30542,0.375488 -8.966553,0.558105 -13.983154,0.558105c-16.195068,0 -27.189453,-3.029297 -32.982666,-9.088867c-5.780029,-6.059082 -8.677002,-13.916504 -8.677002,-23.592285l0,-99.889648l-27.96582,0l0,-20.70752l27.96582,0l0,-42.125488z"/></g><path id="svg_18" fill="#fff" stroke="null" d="m1177.886353,1033.813965"/><path id="svg_19" fill="#fff" stroke="null" d="m1177.886353,1105.242065"/><path id="svg_20" fill="#000" stroke="#000" stroke-linejoin="round" stroke-width="61.14" d="m1375.911011,928.309204c34.602173,-14.39679 28.729736,-20.279053 41.804443,-49.611206c13.706421,-30.734497 24.042358,-35.201965 2.251465,-56.282104c-7.755249,-7.508545 -18.156982,-20.379028 -29.914795,-25.216797c-46.58252,-19.178711 -178.417969,-28.597351 -225.523193,-15.171936c-13.264404,3.779785 -23.384155,11.973083 -36.012451,16.775269c-109.391602,41.605347 -137.921143,48.133911 -216.830566,120.152527c-13.736877,12.53772 -41.446106,29.355286 -44.87616,46.462402c-2.071106,10.322693 5.013977,31.620178 7.469543,42.15741c17.29187,74.174988 168.30603,61.301697 242.014648,69.309387c51.1604,5.558105 99.671997,12.571289 149.097168,23.381592c174.088867,38.078613 529.945435,113.169189 486.929932,290.337646c-7.821045,32.248291 -20.566528,63.121338 -48.137573,89.627686c-42.646973,40.990845 -98.197266,73.15271 -155.722656,101.765503c-37.788452,18.802612 -70.468262,37.980347 -114.20813,49.512085c-117.483765,30.969116 -299.194946,6.924683 -414.131042,-20.899292c-52.364075,-12.67627 -116.215942,-17.167847 -161.08551,-42.308472c-20.316162,-11.37793 -35.287964,-27.718384 -52.133545,-41.606445c-96.103821,-79.211792 104.315918,-124.242065 125.765747,-109.853882c17.335266,11.618286 49.581909,34.094971 23.996338,51.368408c-36.071533,24.361694 2.678101,-18.187256 -8.259521,-5.828369l-83.845581,20.408813c-5.859192,-3.760498 -4.484497,-13.993774 -12.250305,-14.580444c-4.651733,-0.346313 -27.626404,52.185791 44.195374,31.401978c4.712341,-1.365845 -14.901978,-4.799316 -15.644653,-5.078247c-4.510864,-1.702393 3.569519,-7.040161 4.011902,-10.733398c0.828186,-6.915161 -6.955994,-9.771606 -6.749207,-8.867554c10.443787,45.607422 145.685608,83.318481 194.567017,93.647949c129.160156,27.30481 283.081543,27.295166 395.941406,-33.883301c35.536865,-19.264404 61.159424,-45.751587 90.33667,-69.459351c20.32959,-16.542603 46.21521,-30.18042 60.421997,-50.358398c61.923096,-88.002441 -82.699951,-144.073853 -173.115845,-172.984741c-137.170776,-43.866577 -286.968384,-63.768555 -427.836243,-99.456177c-35.140686,-8.903198 -69.188477,-12.15686 -103.291626,-23.614502c-62.568115,-21.020508 -129.508972,-55.360718 -128.127808,-111.248474c0.429199,-17.385986 1.053345,-37.31781 8.680725,-53.851624c35.756958,-77.511353 211.282288,-170.621704 315.812744,-192.184692c27.946289,-5.764832 58.39563,-4.983887 86.255005,-7.038269c91.026733,-6.713196 154.317871,-37.6698 242.911377,5.72644c16.695435,8.179871 26.688965,22.553528 39.579224,33.317749c14.917847,12.4646 32.429688,23.348022 37.617188,40.56189c18.30188,60.622559 -62.870972,116.265015 -134.906128,130.284851"/><path id="svg_21" fill="#000" stroke="#000" stroke-linejoin="round" stroke-width="61.14" d="m2433.197754,907.072266c11.428955,-33.595764 67.426758,-35.447205 46.966064,-82.715515c-21.132568,-48.811035 -143.451416,-59.053955 -198.698975,-60.668701c-100.172363,-2.92865 -182.201172,4.968506 -259.529175,53.400574c-14.838867,9.286865 -33.548828,16.977234 -44.569336,29.120605c-9.690796,10.669922 -14.193726,28.296387 -20.276733,40.443604c-9.084961,18.163086 -23.305176,38.46228 -22.278076,58.046936c2.620239,49.798767 69.270142,87.84552 113.931641,118.369446c68.743408,46.987549 169.442383,67.492432 254.81543,93.865356c73.141113,22.588257 148.823242,49.469849 218.804443,76.986206c29.664551,11.66626 54.918213,26.948853 84.859375,38.32666c87.927246,33.383179 203.63623,102.573242 187.375488,185.026123c-30.652344,155.297729 -344.546631,226.170898 -525.272949,240.55896c-68.335205,5.443726 -131.7854,0.721436 -198.922607,-6.809204c-66.505127,-7.463379 -147.401367,10.396606 -199.778564,-30.623047c-18.262085,-14.301514 -53.535767,-77.672729 -10.177734,-91.560913c15.49707,-4.972412 34.865356,-4.193237 50.783936,0.028931c22.92334,6.088013 6.227783,23.880859 4.437134,22.082275l-34.733643,16.917603c-15.931885,-13.022339 -19.078613,7.588379 -3.528687,10.416138c59.237061,10.791016 71.205444,-20.014648 56.972168,-45.924805c-1.263916,-2.28894 3.62085,4.154907 5.516968,6.193848c6.859863,7.376831 11.626099,12.8396 17.656616,20.985962c2.238281,3.010376 -3.60791,-6.867065 -7.623657,-8.646362c-1.606201,-0.721313 -7.333862,-0.163574 -5.608887,0.384644c11.876343,3.731689 30.243774,0.730957 44.055664,3.452881c58.723389,11.54126 104.003784,35.681763 167.362183,37.980347c148.954834,5.414795 455.17334,-36.326172 511.658447,-153.277954c4.041992,-8.377075 15.576416,-11.185425 18.920654,-17.764038c5.082031,-10.002319 -6.083252,-27.516357 -9.954102,-36.374268c-28.374268,-64.842896 -115.472168,-98.908813 -192.773926,-130.9552c-31.33667,-12.984009 -65.372559,-19.600952 -97.525879,-31.007568c-57.696533,-20.466675 -120.106689,-48.252197 -175.894043,-72.056152c-26.280762,-11.214233 -49.888672,-26.886353 -77.512207,-36.580078c-53.654297,-18.824829 -107.677612,-32.870605 -151.549194,-63.603149c-49.058838,-34.353638 -116.472656,-101.286438 -107.334839,-154.753357c3.857788,-22.586304 18.55188,-43.419312 29.598877,-64.401367c7.202026,-13.655273 11.612793,-28.763855 21.487793,-41.58905c43.845337,-56.969788 176.94751,-92.219727 261.412109,-100.614136c25.003418,-2.484253 51.52124,2.817017 77.23584,3.172913c87.229492,1.207031 160.699707,-3.723999 233.182373,40.317566c54.417969,33.065796 54.549561,90.572266 5.688232,126.832092c-6.767822,5.023315 -16.142578,5.808167 -21.804199,9.23877c-11.257568,6.827637 -17.564453,16.506958 -35.536865,12.19342"/></g></g></svg>